<svg width="24" height="24" viewBox="0 0 24 24" fill="none" xmlns="http://www.w3.org/2000/svg">
<path d="M16.6833 17.5L13.0083 13.825C12.7167 14.0583 12.3812 14.2431 12.0021 14.3792C11.6229 14.5153 11.2194 14.5833 10.7917 14.5833C9.73194 14.5833 8.83507 14.2163 8.10104 13.4823C7.36701 12.7483 7 11.8514 7 10.7917C7 9.73194 7.36701 8.83507 8.10104 8.10104C8.83507 7.36701 9.73194 7 10.7917 7C11.8514 7 12.7483 7.36701 13.4823 8.10104C14.2163 8.83507 14.5833 9.73194 14.5833 10.7917C14.5833 11.2194 14.5153 11.6229 14.3792 12.0021C14.2431 12.3812 14.0583 12.7167 13.825 13.0083L17.5 16.6833L16.6833 17.5V17.5M10.7917 13.4167C11.5208 13.4167 12.1406 13.1615 12.651 12.651C13.1615 12.1406 13.4167 11.5208 13.4167 10.7917C13.4167 10.0625 13.1615 9.44271 12.651 8.93229C12.1406 8.42187 11.5208 8.16667 10.7917 8.16667C10.0625 8.16667 9.44271 8.42187 8.93229 8.93229C8.42187 9.44271 8.16667 10.0625 8.16667 10.7917C8.16667 11.5208 8.42187 12.1406 8.93229 12.651C9.44271 13.1615 10.0625 13.4167 10.7917 13.4167V13.4167" fill="#94A3B8"/>
</svg>
