<svg width="24" height="24" viewBox="0 0 24 24" fill="none" xmlns="http://www.w3.org/2000/svg">
<path d="M9.5 17.6667C9.17917 17.6667 8.90451 17.5524 8.67604 17.324C8.44757 17.0955 8.33333 16.8208 8.33333 16.5C8.33333 16.1792 8.44757 15.9045 8.67604 15.676C8.90451 15.4476 9.17917 15.3333 9.5 15.3333C9.82083 15.3333 10.0955 15.4476 10.324 15.676C10.5524 15.9045 10.6667 16.1792 10.6667 16.5C10.6667 16.8208 10.5524 17.0955 10.324 17.324C10.0955 17.5524 9.82083 17.6667 9.5 17.6667V17.6667M15.3333 17.6667C15.0125 17.6667 14.7378 17.5524 14.5094 17.324C14.2809 17.0955 14.1667 16.8208 14.1667 16.5C14.1667 16.1792 14.2809 15.9045 14.5094 15.676C14.7378 15.4476 15.0125 15.3333 15.3333 15.3333C15.6542 15.3333 15.9288 15.4476 16.1573 15.676C16.3858 15.9045 16.5 16.1792 16.5 16.5C16.5 16.8208 16.3858 17.0955 16.1573 17.324C15.9288 17.5524 15.6542 17.6667 15.3333 17.6667V17.6667M9.00417 8.33333L10.4042 11.25H14.4875V11.25V11.25L16.0917 8.33333V8.33333V8.33333H9.00417V8.33333M8.45 7.16667H17.0542C17.2778 7.16667 17.4479 7.26632 17.5646 7.46563C17.6813 7.66493 17.6861 7.86667 17.5792 8.07083L15.5083 11.8042C15.4014 11.9986 15.258 12.1493 15.0781 12.2562C14.8983 12.3632 14.7014 12.4167 14.4875 12.4167H10.1417L9.5 13.5833V13.5833V13.5833H16.5V14.75H9.5C9.0625 14.75 8.73194 14.558 8.50833 14.174C8.28472 13.7899 8.275 13.4083 8.47917 13.0292L9.26667 11.6L7.16667 7.16667H6V6H7.89583L8.45 7.16667V7.16667M10.4042 11.25V11.25H14.4875V11.25V11.25V11.25H10.4042V11.25" fill="#10B981"/>
</svg>
