<svg width="24" height="24" viewBox="0 0 24 24" fill="none" xmlns="http://www.w3.org/2000/svg">
<path d="M9.33333 15.3333H14V14.1667H9.33333V15.3333V15.3333M9.33333 13H14V11.8333H9.33333V13V13M8.16667 17.6667C7.84583 17.6667 7.57118 17.5524 7.34271 17.324C7.11424 17.0955 7 16.8208 7 16.5V7.16667C7 6.84583 7.11424 6.57118 7.34271 6.34271C7.57118 6.11424 7.84583 6 8.16667 6H12.8333L16.3333 9.5V16.5C16.3333 16.8208 16.2191 17.0955 15.9906 17.324C15.7622 17.5524 15.4875 17.6667 15.1667 17.6667H8.16667V17.6667M12.25 10.0833V7.16667H8.16667V7.16667V7.16667V16.5V16.5V16.5H15.1667V16.5V16.5V10.0833H12.25V10.0833M8.16667 7.16667V7.16667V10.0833V10.0833V7.16667V10.0833V10.0833V16.5V16.5V16.5V16.5V16.5V16.5V7.16667V7.16667V7.16667V7.16667" fill="#94A3B8"/>
</svg>
