<svg width="24" height="24" viewBox="0 0 24 24" fill="none" xmlns="http://www.w3.org/2000/svg">
<path d="M8.1 10.6641L9.2375 11.1453C9.37361 10.8731 9.51458 10.6106 9.66042 10.3578C9.80625 10.1051 9.96667 9.85227 10.1417 9.5995L9.325 9.43908V9.43908V9.43908L8.1 10.6641V10.6641M10.1708 11.8745L11.8333 13.5224C12.2417 13.3669 12.6792 13.1287 13.1458 12.8078C13.6125 12.487 14.05 12.1224 14.4583 11.7141C15.1389 11.0335 15.6712 10.2776 16.0552 9.44637C16.4392 8.61512 16.6069 7.8495 16.5583 7.1495C15.8583 7.10088 15.0903 7.26859 14.2542 7.65262C13.4181 8.03665 12.6597 8.56894 11.9792 9.2495C11.5708 9.65783 11.2062 10.0953 10.8854 10.562C10.5646 11.0287 10.3264 11.4662 10.1708 11.8745V11.8745M12.7667 10.9266C12.5431 10.703 12.4313 10.4283 12.4313 10.1026C12.4313 9.77693 12.5431 9.50227 12.7667 9.27866C12.9903 9.05505 13.2674 8.94325 13.5979 8.94325C13.9285 8.94325 14.2056 9.05505 14.4292 9.27866C14.6528 9.50227 14.7646 9.77693 14.7646 10.1026C14.7646 10.4283 14.6528 10.703 14.4292 10.9266C14.2056 11.1502 13.9285 11.262 13.5979 11.262C13.2674 11.262 12.9903 11.1502 12.7667 10.9266V10.9266M13.0437 15.6078L14.2688 14.3828V14.3828V14.3828L14.1083 13.5662C13.8556 13.7412 13.6028 13.8991 13.35 14.0401C13.0972 14.1811 12.8347 14.3196 12.5625 14.4557L13.0437 15.6078V15.6078M17.6083 6.08491C17.7931 7.2613 17.6788 8.40609 17.2656 9.51929C16.8524 10.6325 16.1403 11.6946 15.1292 12.7057V12.7057V12.7057L15.4208 14.1495C15.4597 14.3439 15.45 14.5335 15.3917 14.7182C15.3333 14.903 15.2361 15.0634 15.1 15.1995L12.65 17.6495L11.425 14.7766L8.93125 12.2828L6.05833 11.0578L8.49375 8.60783C8.62986 8.47172 8.79271 8.3745 8.98229 8.31616C9.17188 8.25783 9.36389 8.24811 9.55833 8.287L11.0021 8.57866V8.57866V8.57866C12.0132 7.56755 13.0729 6.85297 14.1812 6.43491C15.2896 6.01686 16.4319 5.90019 17.6083 6.08491V6.08491M7.09375 14.1349C7.43403 13.7946 7.84965 13.6221 8.34063 13.6172C8.8316 13.6123 9.24722 13.7801 9.5875 14.1203C9.92778 14.4606 10.0955 14.8762 10.0906 15.3672C10.0858 15.8582 9.91319 16.2738 9.57292 16.6141C9.32986 16.8571 8.92396 17.0662 8.35521 17.2412C7.78646 17.4162 7.00139 17.5717 6 17.7078C6.13611 16.7064 6.29167 15.9214 6.46667 15.3526C6.64167 14.7839 6.85069 14.378 7.09375 14.1349V14.1349M7.925 14.9516C7.82778 15.0488 7.73056 15.2262 7.63333 15.4839C7.53611 15.7415 7.46806 16.0016 7.42917 16.2641C7.69167 16.2252 7.95174 16.1596 8.20937 16.0672C8.46701 15.9748 8.64444 15.8801 8.74167 15.7828C8.85833 15.6662 8.92153 15.5252 8.93125 15.3599C8.94097 15.1946 8.8875 15.0537 8.77083 14.937C8.65417 14.8203 8.51319 14.7644 8.34792 14.7693C8.18264 14.7741 8.04167 14.8349 7.925 14.9516V14.9516" fill="#94A3B8"/>
</svg>
