<svg width="24" height="24" viewBox="0 0 24 24" fill="none" xmlns="http://www.w3.org/2000/svg">
<path d="M11.55 18.25C11.2778 18.25 11.0226 18.1917 10.7844 18.075C10.5462 17.9583 10.3444 17.7931 10.1792 17.5792L7 13.5396L7.27708 13.2479C7.47153 13.0438 7.70486 12.9222 7.97708 12.8833C8.24931 12.8444 8.50208 12.8979 8.73542 13.0437L9.81458 13.7V8.91667C9.81458 8.75139 9.87049 8.61285 9.98229 8.50104C10.0941 8.38924 10.2326 8.33333 10.3979 8.33333C10.5632 8.33333 10.7042 8.38924 10.8208 8.50104C10.9375 8.61285 10.9958 8.75139 10.9958 8.91667V15.8L9.58125 14.925L11.0979 16.8646C11.1562 16.9326 11.2243 16.9861 11.3021 17.025C11.3799 17.0639 11.4625 17.0833 11.55 17.0833H14.7729C15.0938 17.0833 15.3684 16.9691 15.5969 16.7406C15.8253 16.5122 15.9396 16.2375 15.9396 15.9167V13.5833C15.9396 13.4181 15.8837 13.2795 15.7719 13.1677C15.6601 13.0559 15.5215 13 15.3562 13H12.1625V11.8333H15.3562C15.8424 11.8333 16.2556 12.0035 16.5958 12.3438C16.9361 12.684 17.1062 13.0972 17.1062 13.5833V15.9167C17.1062 16.5583 16.8778 17.1076 16.4208 17.5646C15.9639 18.0215 15.4146 18.25 14.7729 18.25H11.55V18.25M7.875 10.375C7.74861 10.1611 7.65139 9.93021 7.58333 9.68229C7.51528 9.43438 7.48125 9.17917 7.48125 8.91667C7.48125 8.10972 7.76562 7.42188 8.33438 6.85312C8.90313 6.28437 9.59097 6 10.3979 6C11.2049 6 11.8927 6.28437 12.4615 6.85312C13.0302 7.42188 13.3146 8.10972 13.3146 8.91667C13.3146 9.17917 13.2806 9.43438 13.2125 9.68229C13.1444 9.93021 13.0472 10.1611 12.9208 10.375L11.9146 9.79167C11.9924 9.65556 12.0507 9.51701 12.0896 9.37604C12.1285 9.23507 12.1479 9.08194 12.1479 8.91667C12.1479 8.43056 11.9778 8.01736 11.6375 7.67708C11.2972 7.33681 10.884 7.16667 10.3979 7.16667C9.91181 7.16667 9.49861 7.33681 9.15833 7.67708C8.81806 8.01736 8.64792 8.43056 8.64792 8.91667C8.64792 9.08194 8.66736 9.23507 8.70625 9.37604C8.74514 9.51701 8.80347 9.65556 8.88125 9.79167L7.875 10.375V10.375M12.7604 14.4583V14.4583V14.4583V14.4583V14.4583V14.4583V14.4583V14.4583V14.4583V14.4583V14.4583V14.4583V14.4583V14.4583V14.4583V14.4583" fill="#94A3B8"/>
</svg>
